<svg width="38" height="38" viewBox="0 0 38 38" fill="none" xmlns="http://www.w3.org/2000/svg">
<path d="M34.8331 20.105C34.8307 22.4319 34.813 24.4095 34.6807 26.0324C34.5273 27.9155 34.2129 29.489 33.5091 30.7959C33.1987 31.3723 32.8173 31.8885 32.3529 32.3529C31.035 33.6708 29.3559 34.2679 27.228 34.5539C25.149 34.8335 22.4845 34.8334 19.0846 34.8334H18.9156C15.5156 34.8334 12.8511 34.8335 10.7722 34.5539C8.6443 34.2679 6.9652 33.6708 5.64726 32.3529C4.47886 31.1845 3.87549 29.7303 3.55463 27.9263C3.23943 26.1542 3.18177 23.9494 3.1698 21.2116C3.16675 20.5152 3.16675 19.7786 3.16675 19.0016V18.9156C3.16673 15.5156 3.16672 12.8511 3.44622 10.7722C3.73231 8.6443 4.32932 6.9652 5.64726 5.64726C6.9652 4.32932 8.6443 3.73231 10.7722 3.44622C12.621 3.19765 14.9997 3.17015 17.895 3.16712C18.505 3.16648 19.0001 3.66132 19.0001 4.2714C19.0001 4.88148 18.5048 5.37581 17.8947 5.37646C14.9586 5.37956 12.7736 5.40632 11.0666 5.63582C9.18367 5.88897 8.0485 6.37044 7.20947 7.20947C6.37044 8.0485 5.88897 9.18367 5.63582 11.0666C5.3784 12.9813 5.37605 15.4973 5.37605 19.0001C5.37605 19.4278 5.37605 19.8415 5.37655 20.2421L6.8511 18.9519C8.19328 17.7775 10.2161 17.8448 11.4772 19.1059L17.7954 25.4241C18.8076 26.4363 20.401 26.5743 21.5721 25.7512L22.0114 25.4426C23.6967 24.2582 25.9768 24.3954 27.5079 25.7734L31.6769 29.5255C32.0965 28.6442 32.3456 27.4863 32.4787 25.8529C32.6041 24.3139 32.6214 22.4446 32.6237 20.1051C32.6244 19.495 33.1187 19.0001 33.7288 19.0001C34.3389 19.0001 34.8337 19.4949 34.8331 20.105Z" fill="black"/>
<path fill-rule="evenodd" clip-rule="evenodd" d="M27.7084 17.4167C24.3497 17.4167 22.6703 17.4167 21.6268 16.3733C20.5834 15.3299 20.5834 13.6505 20.5834 10.2917C20.5834 6.93299 20.5834 5.25361 21.6268 4.21018C22.6703 3.16675 24.3497 3.16675 27.7084 3.16675C31.0672 3.16675 32.7466 3.16675 33.79 4.21018C34.8334 5.25361 34.8334 6.93299 34.8334 10.2917C34.8334 13.6505 34.8334 15.3299 33.79 16.3733C32.7466 17.4167 31.0672 17.4167 27.7084 17.4167ZM28.8959 7.12508C28.8959 6.46924 28.3643 5.93758 27.7084 5.93758C27.0526 5.93758 26.5209 6.46924 26.5209 7.12508V9.10425H24.5417C23.8859 9.10425 23.3542 9.63591 23.3542 10.2917C23.3542 10.9476 23.8859 11.4792 24.5417 11.4792H26.5209V13.4584C26.5209 14.1143 27.0526 14.6459 27.7084 14.6459C28.3643 14.6459 28.8959 14.1143 28.8959 13.4584V11.4792H30.8751C31.5309 11.4792 32.0626 10.9476 32.0626 10.2917C32.0626 9.63591 31.5309 9.10425 30.8751 9.10425H28.8959V7.12508Z" fill="black"/>
</svg>
